<?xml version="1.0" encoding="utf-8"?>
<!-- Generator: Adobe Illustrator 22.1.0, SVG Export Plug-In . SVG Version: 6.00 Build 0)  -->
<svg version="1.1" id="Layer_1" xmlns="http://www.w3.org/2000/svg" xmlns:xlink="http://www.w3.org/1999/xlink" x="0px" y="0px"
	 viewBox="0 0 256 256" style="enable-background:new 0 0 256 256;" xml:space="preserve">
<style type="text/css">
	.st0{fill:#D73735;}
	.st1{fill:#F85252;}
	.st2{fill:#EDAF85;}
	.st3{fill:#F7C09A;}
	.st4{fill:#D8D6D7;}
	.st5{fill:#FFFFFF;}
	.st6{fill:#1C868E;}
	.st7{fill:#40C4DF;}
	.st8{fill:#491352;}
	.st9{fill:#56C1B3;}
	.st10{fill:#7BEFE4;}
</style>
<g>
	<path class="st4" d="M105,11.21v62c0,2.76-2.24,5-5,5H11c-2.76,0-5-2.24-5-5v-62c0-2.76,2.24-5,5-5h89
		C102.76,6.21,105,8.45,105,11.21z"/>
	<path class="st4" d="M250,70.21v118.08c0,2.76-2.24,5-5,5h-89c-2.76,0-5-2.24-5-5V70.21c0-2.76,2.24-5,5-5h89
		C247.76,65.21,250,67.45,250,70.21z"/>
	<path class="st4" d="M105,182.79v62c0,2.76-2.24,5-5,5H11c-2.76,0-5-2.24-5-5v-62c0-2.76,2.24-5,5-5h89
		C102.76,177.79,105,180.03,105,182.79z"/>
	<path class="st5" d="M105,11.21v62c0,2.76-2.24,5-5,5H24.33c-2.76,0-5-2.24-5-5v-62c0-2.76,2.24-5,5-5H100
		C102.76,6.21,105,8.45,105,11.21z"/>
	<path class="st5" d="M250,70.21v118.08c0,2.76-2.24,5-5,5h-75.67c-2.76,0-5-2.24-5-5V70.21c0-2.76,2.24-5,5-5H245
		C247.76,65.21,250,67.45,250,70.21z"/>
	<path class="st5" d="M105,182.79v62c0,2.76-2.24,5-5,5H24.33c-2.76,0-5-2.24-5-5v-62c0-2.76,2.24-5,5-5H100
		C102.76,177.79,105,180.03,105,182.79z"/>
	<path class="st10" d="M105,11.21v17H6v-17c0-2.76,2.24-5,5-5h89C102.76,6.21,105,8.45,105,11.21z"/>
	<path class="st7" d="M250,70.21v17h-99v-17c0-2.76,2.24-5,5-5h89C247.76,65.21,250,67.45,250,70.21z"/>
	<path class="st10" d="M105,182.79v17H6v-17c0-2.76,2.24-5,5-5h89C102.76,177.79,105,180.03,105,182.79z"/>
	<path class="st9" d="M6,11.21v17h13.33v-17c0-2.76,2.24-5,5-5H11C8.24,6.21,6,8.45,6,11.21z"/>
	<path class="st6" d="M156,65.21c-2.76,0-5,2.24-5,5v17h13.33v-17c0-2.76,2.24-5,5-5H156z"/>
	<path class="st9" d="M6,182.79v17h13.33v-17c0-2.76,2.24-5,5-5H11C8.24,177.79,6,180.03,6,182.79z"/>
	<g>
		<path class="st8" d="M11,80.208h89c3.86,0,7-3.141,7-7v-62c0-3.859-3.14-7-7-7H11c-3.86,0-7,3.141-7,7v62
			C4,77.067,7.14,80.208,11,80.208z M8,11.208c0-1.654,1.346-3,3-3h89c1.654,0,3,1.346,3,3v15H8V11.208z M8,30.208h95v43
			c0,1.654-1.346,3-3,3H11c-1.654,0-3-1.346-3-3V30.208z"/>
		<path class="st8" d="M18,48.125h75c1.104,0,2-0.896,2-2s-0.896-2-2-2H18c-1.104,0-2,0.896-2,2S16.896,48.125,18,48.125z"/>
		<path class="st8" d="M18,62.625h75c1.104,0,2-0.896,2-2s-0.896-2-2-2H18c-1.104,0-2,0.896-2,2S16.896,62.625,18,62.625z"/>
		<path class="st8" d="M245,63.208h-89c-3.86,0-7,3.141-7,7v55.417h-20.167v-78c0-3.859-3.14-7-7-7h-14.667v4h14.667
			c1.654,0,3,1.346,3,3v160c0,1.654-1.346,3-3,3H107v-27.833c0-3.859-3.14-7-7-7H11c-3.86,0-7,3.141-7,7v62c0,3.859,3.14,7,7,7h89
			c3.86,0,7-3.141,7-7v-30.167h14.833c3.86,0,7-3.141,7-7v-78H149v58.667c0,3.859,3.14,7,7,7h89c3.86,0,7-3.141,7-7V70.208
			C252,66.349,248.86,63.208,245,63.208z M103,244.792c0,1.654-1.346,3-3,3H11c-1.654,0-3-1.346-3-3v-43h95V244.792z M103,197.792H8
			v-15c0-1.654,1.346-3,3-3h89c1.654,0,3,1.346,3,3V197.792z M248,188.292c0,1.654-1.346,3-3,3h-89c-1.654,0-3-1.346-3-3V89.208h95
			V188.292z M248,85.208h-95v-15c0-1.654,1.346-3,3-3h89c1.654,0,3,1.346,3,3V85.208z"/>
		<path class="st8" d="M163,107.125h75c1.104,0,2-0.896,2-2s-0.896-2-2-2h-75c-1.104,0-2,0.896-2,2S161.896,107.125,163,107.125z"/>
		<path class="st8" d="M163,121.375h75c1.104,0,2-0.896,2-2s-0.896-2-2-2h-75c-1.104,0-2,0.896-2,2S161.896,121.375,163,121.375z"/>
		<path class="st8" d="M163,135.625h75c1.104,0,2-0.896,2-2s-0.896-2-2-2h-75c-1.104,0-2,0.896-2,2S161.896,135.625,163,135.625z"/>
		<path class="st8" d="M163,149.875h75c1.104,0,2-0.896,2-2s-0.896-2-2-2h-75c-1.104,0-2,0.896-2,2S161.896,149.875,163,149.875z"/>
		<path class="st8" d="M163,164.125h75c1.104,0,2-0.896,2-2s-0.896-2-2-2h-75c-1.104,0-2,0.896-2,2S161.896,164.125,163,164.125z"/>
		<path class="st8" d="M163,178.375h75c1.104,0,2-0.896,2-2s-0.896-2-2-2h-75c-1.104,0-2,0.896-2,2S161.896,178.375,163,178.375z"/>
		<path class="st8" d="M18,219.708h75c1.104,0,2-0.896,2-2s-0.896-2-2-2H18c-1.104,0-2,0.896-2,2S16.896,219.708,18,219.708z"/>
		<path class="st8" d="M18,234.208h75c1.104,0,2-0.896,2-2s-0.896-2-2-2H18c-1.104,0-2,0.896-2,2S16.896,234.208,18,234.208z"/>
	</g>
</g>
</svg>
